<?xml version="1.0" encoding="utf-8"?>
<!-- Generator: Adobe Illustrator 21.1.0, SVG Export Plug-In . SVG Version: 6.00 Build 0)  -->
<svg version="1.1" id="Layer_1" xmlns="http://www.w3.org/2000/svg" xmlns:xlink="http://www.w3.org/1999/xlink" x="0px" y="0px"
	 viewBox="0 0 400 400" style="enable-background:new 0 0 400 400;" xml:space="preserve">
<style type="text/css">
	.st0{fill:#3685C6;}
</style>
<g>
	<path class="st0" d="M179,203.4c-0.9,0.5-2.1,0.8-3.5,0.8c-1.8,0-3.3-0.6-4.4-1.8c-1.1-1.2-1.6-2.7-1.6-4.6c0-2,0.6-3.7,1.8-5
		c1.2-1.3,2.8-1.9,4.7-1.9c1.2,0,2.2,0.2,3,0.5v1.6c-0.9-0.5-1.9-0.8-3-0.8c-1.5,0-2.7,0.5-3.6,1.5c-0.9,1-1.4,2.3-1.4,3.9
		c0,1.6,0.4,2.8,1.3,3.7c0.9,0.9,2,1.4,3.4,1.4c1.3,0,2.4-0.3,3.3-0.9V203.4z"/>
	<path class="st0" d="M187.9,204.2h-6.3v-13.1h1.6v11.5h4.7V204.2z"/>
	<path class="st0" d="M194.5,204.2c-1.8,0-3.3-0.6-4.4-1.8c-1.1-1.2-1.6-2.8-1.6-4.7c0-2.1,0.6-3.7,1.7-4.9c1.1-1.2,2.6-1.8,4.5-1.8
		c1.8,0,3.2,0.6,4.3,1.8c1.1,1.2,1.6,2.7,1.6,4.7c0,2.1-0.6,3.7-1.7,5C197.9,203.5,196.4,204.2,194.5,204.2z M194.6,192.3
		c-1.3,0-2.4,0.5-3.3,1.5c-0.8,1-1.3,2.2-1.3,3.8c0,1.6,0.4,2.8,1.2,3.8c0.8,1,1.9,1.4,3.2,1.4c1.4,0,2.5-0.5,3.3-1.4
		c0.8-0.9,1.2-2.2,1.2-3.9c0-1.7-0.4-3-1.2-3.9C197.1,192.7,196,192.3,194.6,192.3z"/>
	<path class="st0" d="M212.4,198.8c0,3.6-1.6,5.4-4.8,5.4c-3.1,0-4.6-1.7-4.6-5.2v-7.8h1.6v7.7c0,2.6,1.1,3.9,3.2,3.9
		c2.1,0,3.1-1.3,3.1-3.8v-7.9h1.6V198.8z"/>
	<path class="st0" d="M215.6,204.2v-13.1h3.6c4.6,0,6.9,2.1,6.9,6.4c0,2-0.6,3.6-1.9,4.9c-1.3,1.2-3,1.8-5.1,1.8H215.6z
		 M217.1,192.7v9.9h1.9c1.7,0,2.9-0.4,3.9-1.3c0.9-0.9,1.4-2.1,1.4-3.8c0-3.2-1.7-4.8-5.1-4.8H217.1z"/>
	<path d="M231.3,204.2h-1.6v-13.1h1.6V204.2z"/>
	<path d="M245.4,204.2h-1.6l-6.9-10.7c-0.2-0.3-0.3-0.5-0.4-0.8h-0.1c0.1,0.3,0.1,0.9,0.1,1.8v9.7h-1.6v-13.1h2l6.5,10.1
		c0.3,0.4,0.4,0.7,0.5,0.9h0c-0.1-0.4-0.1-1-0.1-1.9v-9.1h1.6V204.2z"/>
	<path d="M255.8,192.7h-3.7v11h-1.6v-11h-3.7v-1.6h8.9V192.7z"/>
	<path d="M267.3,198.8c0,3.6-1.6,5.4-4.8,5.4c-3.1,0-4.6-1.7-4.6-5.2v-4.2h1.6v4.1c0,2.6,1.1,3.9,3.2,3.9c2.1,0,3.1-1.3,3.1-3.8
		v-7.9h1.6V198.8z"/>
	<path d="M272,204.2h-1.6v-13.1h1.6V204.2z"/>
	<path d="M283,192.7h-3.7v11h-1.6v-11h-3.7v-1.6h8.9V192.7z"/>
	<path d="M255.8,191.2h1c1.4,0,2.6,1.2,2.6,2.6v1h-1.6v-1c0-0.6-0.5-1-1-1h-1V191.2z"/>
	<circle cx="230.5" cy="189.3" r="0.8"/>
	<circle cx="271.2" cy="189.3" r="0.8"/>
	<g>
		<g>
			<path d="M152.2,200.7c-0.2,0-0.3-0.1-0.4-0.2c-0.5-0.6-1.2-1-2.1-1c-0.8,0-1.6,0.4-2.1,1c-0.2,0.2-0.5,0.3-0.7,0.1
				c-0.2-0.2-0.3-0.5-0.1-0.7c0.7-0.9,1.7-1.4,2.9-1.4s2.2,0.5,2.9,1.4c0.2,0.2,0.1,0.6-0.1,0.7
				C152.4,200.7,152.3,200.7,152.2,200.7z"/>
		</g>
		<g>
			<path d="M154.4,199.4c-0.2,0-0.3-0.1-0.4-0.2c-1-1.4-2.6-2.3-4.3-2.3s-3.3,0.8-4.3,2.3c-0.2,0.2-0.5,0.3-0.7,0.1
				c-0.2-0.2-0.3-0.5-0.1-0.7c1.2-1.7,3.1-2.7,5.2-2.7s4,1,5.2,2.7c0.2,0.2,0.1,0.6-0.1,0.7C154.6,199.4,154.5,199.4,154.4,199.4z"
				/>
		</g>
		<g>
			<path d="M142.3,197.8c-0.1,0-0.2,0-0.3-0.1c-0.2-0.2-0.3-0.5-0.1-0.7c1.7-2.7,4.7-4.3,7.9-4.3c0.3,0,0.5,0.2,0.5,0.5
				s-0.2,0.5-0.5,0.5c-2.8,0-5.5,1.4-7,3.8C142.6,197.7,142.4,197.8,142.3,197.8z"/>
		</g>
		<g>
			<circle cx="149.7" cy="202.1" r="0.5"/>
		</g>
		<g>
			<path d="M122.7,211.1c-1.4,0-2.7-0.5-3.8-1.4c-1.4-1.2-2.2-3-2.2-4.9c0-3.7,3-6.8,6.8-6.8c0.4,0,0.7,0,1.1,0.1
				c0-0.4-0.1-0.8-0.1-1.1c0-5.2,4.2-9.4,9.4-9.4c4,0,7.6,2.5,8.9,6.3c0.1,0.3,0,0.6-0.3,0.7c-0.3,0.1-0.6,0-0.7-0.3
				c-1.2-3.3-4.3-5.6-7.9-5.6c-4.6,0-8.4,3.8-8.4,8.4c0,0.6,0.1,1.2,0.2,1.7l0.2,0.9l-0.8-0.2c-0.5-0.2-1.1-0.2-1.6-0.2
				c-3.2,0-5.7,2.6-5.7,5.7c0,1.6,0.7,3.1,1.8,4.1c1.1,0.9,2.4,1.3,3.8,1.1l0.1,0h34.8c2.9,0,5-1.8,5-4.4c0-2.7-2.4-5-5.2-5h-0.4
				l-0.1-0.4c-0.7-3.9-3.7-6.4-7.8-6.4c-1.9,0-3.7,0.6-5.2,1.8c-0.2,0.2-0.6,0.1-0.7-0.1c-0.2-0.2-0.1-0.6,0.1-0.7
				c1.7-1.3,3.7-2.1,5.9-2.1c4.5,0,7.9,2.7,8.8,6.8c3.2,0.2,5.8,2.9,5.8,6c0,3.2-2.5,5.5-6,5.5h-34.7
				C123.3,211.1,123,211.1,122.7,211.1z"/>
		</g>
	</g>
	<g>
		<path d="M173.4,207.9v0.4h-0.9v2.5h-0.4v-2.5h-0.9v-0.4H173.4z"/>
		<path d="M177.9,207.9h0.4v2.9h-0.4v-1.3h-1.4v1.3h-0.4v-2.9h0.4v1.2h1.4V207.9z"/>
		<path d="M181.3,207.9h0.4v2.9h-0.4V207.9z"/>
		<path d="M186.7,210.8c-0.1-0.1-0.1-0.2-0.2-0.3s-0.2-0.3-0.3-0.4c-0.1-0.1-0.2-0.3-0.3-0.4c-0.1-0.1-0.2-0.3-0.3-0.4
			c-0.1-0.1-0.2-0.3-0.3-0.4c-0.1-0.1-0.2-0.2-0.3-0.3v2.3h-0.4v-2.9h0.3c0.1,0.1,0.3,0.3,0.4,0.5c0.1,0.2,0.3,0.4,0.4,0.6
			c0.1,0.2,0.3,0.4,0.4,0.6c0.1,0.2,0.2,0.4,0.3,0.5v-2.1h0.4v2.9H186.7z"/>
		<path d="M192.2,207.9c-0.1,0.1-0.2,0.2-0.3,0.3c-0.1,0.1-0.2,0.2-0.3,0.4c-0.1,0.1-0.2,0.2-0.4,0.4c-0.1,0.1-0.2,0.2-0.3,0.3
			c0.1,0.1,0.2,0.2,0.4,0.3c0.1,0.1,0.3,0.3,0.4,0.4c0.1,0.1,0.2,0.3,0.4,0.4c0.1,0.1,0.2,0.3,0.3,0.4h-0.5
			c-0.1-0.1-0.2-0.3-0.3-0.4c-0.1-0.1-0.2-0.3-0.3-0.4c-0.1-0.1-0.2-0.2-0.4-0.3c-0.1-0.1-0.2-0.2-0.4-0.3v1.4H190v-2.9h0.4v1.3
			c0.1-0.1,0.2-0.2,0.3-0.3c0.1-0.1,0.2-0.2,0.3-0.3c0.1-0.1,0.2-0.2,0.3-0.3c0.1-0.1,0.2-0.2,0.3-0.3H192.2z"/>
		<path d="M199,210.9c-0.1,0-0.1,0-0.2,0c-0.1,0-0.1,0-0.2,0c-0.1,0-0.1,0-0.2,0c-0.1,0-0.1,0-0.2,0V208c0.1,0,0.1,0,0.2,0
			c0.1,0,0.1,0,0.2,0c0.1,0,0.1,0,0.2,0c0.1,0,0.1,0,0.2,0c0.2,0,0.3,0,0.5,0c0.1,0,0.3,0.1,0.4,0.1c0.1,0.1,0.2,0.1,0.3,0.2
			c0.1,0.1,0.1,0.2,0.1,0.4c0,0.2,0,0.3-0.1,0.4c-0.1,0.1-0.2,0.2-0.3,0.2c0.2,0.1,0.3,0.1,0.4,0.2c0.1,0.1,0.2,0.3,0.2,0.5
			c0,0.3-0.1,0.5-0.3,0.7C199.8,210.8,199.4,210.9,199,210.9z M198.6,209.2h0.4c0.1,0,0.2,0,0.3,0c0.1,0,0.2,0,0.2-0.1
			c0.1,0,0.1-0.1,0.2-0.1c0-0.1,0.1-0.1,0.1-0.2c0-0.1,0-0.2-0.1-0.2s-0.1-0.1-0.2-0.1c-0.1,0-0.1-0.1-0.2-0.1c-0.1,0-0.2,0-0.3,0
			s-0.2,0-0.2,0c-0.1,0-0.1,0-0.2,0V209.2z M198.6,209.5v1c0,0,0.1,0,0.1,0c0,0,0.1,0,0.1,0c0,0,0.1,0,0.2,0c0.1,0,0.2,0,0.3,0
			c0.1,0,0.2,0,0.3-0.1c0.1,0,0.1-0.1,0.2-0.2c0-0.1,0.1-0.2,0.1-0.3c0-0.1,0-0.2-0.1-0.2c0-0.1-0.1-0.1-0.2-0.2
			c-0.1,0-0.2-0.1-0.2-0.1s-0.2,0-0.3,0H198.6z"/>
		<path d="M203.1,210.8v-2.9h1.8v0.3h-1.4v0.9h1.2v0.3h-1.2v1h1.5v0.3H203.1z"/>
		<path d="M208.5,210.8v-1.2c-0.2-0.3-0.4-0.6-0.5-0.9c-0.2-0.3-0.3-0.6-0.5-0.9h0.5c0.1,0.2,0.2,0.5,0.4,0.7
			c0.1,0.2,0.3,0.5,0.4,0.7c0.1-0.2,0.3-0.4,0.4-0.7c0.1-0.2,0.3-0.5,0.4-0.7h0.5c-0.2,0.3-0.3,0.6-0.5,0.9
			c-0.2,0.3-0.4,0.6-0.5,0.9v1.2H208.5z"/>
		<path d="M212.3,209.4c0-0.2,0-0.5,0.1-0.7c0.1-0.2,0.2-0.3,0.3-0.5c0.1-0.1,0.3-0.2,0.4-0.3c0.2-0.1,0.3-0.1,0.5-0.1
			c0.2,0,0.4,0,0.5,0.1c0.2,0.1,0.3,0.2,0.4,0.3c0.1,0.1,0.2,0.3,0.3,0.5c0.1,0.2,0.1,0.4,0.1,0.7c0,0.2,0,0.5-0.1,0.7
			c-0.1,0.2-0.2,0.3-0.3,0.5c-0.1,0.1-0.3,0.2-0.4,0.3c-0.2,0.1-0.3,0.1-0.5,0.1c-0.2,0-0.4,0-0.5-0.1c-0.2-0.1-0.3-0.2-0.4-0.3
			c-0.1-0.1-0.2-0.3-0.3-0.5C212.3,209.9,212.3,209.6,212.3,209.4z M212.7,209.4c0,0.2,0,0.3,0.1,0.5c0,0.1,0.1,0.3,0.2,0.4
			c0.1,0.1,0.2,0.2,0.3,0.2c0.1,0.1,0.3,0.1,0.4,0.1c0.1,0,0.3,0,0.4-0.1c0.1-0.1,0.2-0.1,0.3-0.2c0.1-0.1,0.1-0.2,0.2-0.4
			c0-0.1,0.1-0.3,0.1-0.5c0-0.2,0-0.3-0.1-0.5c0-0.1-0.1-0.3-0.2-0.4c-0.1-0.1-0.2-0.2-0.3-0.2c-0.1-0.1-0.2-0.1-0.4-0.1
			c-0.1,0-0.3,0-0.4,0.1c-0.1,0.1-0.2,0.1-0.3,0.2c-0.1,0.1-0.1,0.2-0.2,0.4C212.7,209.1,212.7,209.2,212.7,209.4z"/>
		<path d="M219.9,210.8c-0.1-0.1-0.1-0.2-0.2-0.3s-0.2-0.3-0.3-0.4c-0.1-0.1-0.2-0.3-0.3-0.4c-0.1-0.1-0.2-0.3-0.3-0.4
			c-0.1-0.1-0.2-0.3-0.3-0.4c-0.1-0.1-0.2-0.2-0.3-0.3v2.3h-0.4v-2.9h0.3c0.1,0.1,0.3,0.3,0.4,0.5c0.1,0.2,0.3,0.4,0.4,0.6
			c0.1,0.2,0.3,0.4,0.4,0.6c0.1,0.2,0.2,0.4,0.3,0.5v-2.1h0.4v2.9H219.9z"/>
		<path d="M225.6,209.4c0,0.3,0,0.5-0.1,0.7c-0.1,0.2-0.2,0.3-0.3,0.5c-0.1,0.1-0.3,0.2-0.5,0.3c-0.2,0.1-0.4,0.1-0.7,0.1
			c-0.1,0-0.2,0-0.4,0c-0.1,0-0.3,0-0.4-0.1V208c0.1,0,0.2,0,0.4-0.1c0.1,0,0.3,0,0.4,0c0.2,0,0.5,0,0.7,0.1
			c0.2,0.1,0.4,0.2,0.5,0.3c0.1,0.1,0.3,0.3,0.3,0.5C225.5,208.9,225.6,209.1,225.6,209.4z M224,210.5c0.4,0,0.7-0.1,0.9-0.3
			c0.2-0.2,0.3-0.5,0.3-0.8c0-0.4-0.1-0.6-0.3-0.8c-0.2-0.2-0.5-0.3-0.9-0.3c-0.1,0-0.2,0-0.3,0c-0.1,0-0.1,0-0.1,0v2.2
			c0,0,0.1,0,0.1,0C223.8,210.5,223.9,210.5,224,210.5z"/>
		<path d="M231.7,207.9h0.4v2.9h-0.4V207.9z"/>
		<path d="M236.4,210.4c0-0.1-0.1-0.2-0.1-0.3c0-0.1-0.1-0.2-0.1-0.3c-0.1-0.1-0.1-0.2-0.2-0.4c-0.1-0.1-0.1-0.2-0.2-0.4
			c-0.1-0.1-0.1-0.2-0.1-0.3c0-0.1-0.1-0.2-0.1-0.2c0,0.3-0.1,0.7-0.1,1.1c0,0.4,0,0.8-0.1,1.2H235c0-0.3,0-0.5,0-0.8
			c0-0.3,0-0.5,0-0.8c0-0.2,0-0.5,0.1-0.7c0-0.2,0-0.5,0.1-0.7h0.4c0.1,0.1,0.2,0.3,0.2,0.4s0.2,0.3,0.3,0.5
			c0.1,0.2,0.2,0.4,0.3,0.5c0.1,0.2,0.2,0.3,0.2,0.5c0.1-0.2,0.1-0.3,0.2-0.5c0.1-0.2,0.2-0.4,0.3-0.5c0.1-0.2,0.2-0.4,0.3-0.5
			c0.1-0.2,0.2-0.3,0.2-0.4h0.4c0.1,0.9,0.2,1.9,0.2,2.9h-0.4c0-0.4,0-0.8-0.1-1.2c0-0.4,0-0.7-0.1-1.1c0,0-0.1,0.1-0.1,0.2
			c0,0.1-0.1,0.2-0.1,0.3c-0.1,0.1-0.1,0.2-0.2,0.4c-0.1,0.1-0.1,0.3-0.2,0.4c-0.1,0.1-0.1,0.2-0.1,0.3s-0.1,0.2-0.1,0.3H236.4z"/>
		<path d="M242.9,210.8c0-0.1-0.1-0.2-0.1-0.4s-0.1-0.2-0.1-0.4h-1.3l-0.3,0.7h-0.4c0.1-0.3,0.2-0.6,0.3-0.9
			c0.1-0.3,0.2-0.5,0.3-0.7c0.1-0.2,0.2-0.5,0.3-0.7c0.1-0.2,0.2-0.4,0.3-0.6h0.4c0.1,0.2,0.2,0.4,0.3,0.6c0.1,0.2,0.2,0.4,0.3,0.7
			c0.1,0.2,0.2,0.5,0.3,0.7c0.1,0.3,0.2,0.5,0.3,0.9H242.9z M242.5,209.8c-0.1-0.2-0.2-0.5-0.3-0.7s-0.2-0.4-0.3-0.7
			c-0.1,0.2-0.2,0.4-0.3,0.7c-0.1,0.2-0.2,0.5-0.3,0.7H242.5z"/>
		<path d="M247.7,209.4h0.4v1.4c0,0-0.1,0-0.1,0c-0.1,0-0.1,0-0.2,0c-0.1,0-0.2,0-0.3,0c-0.1,0-0.2,0-0.3,0c-0.2,0-0.4,0-0.6-0.1
			c-0.2-0.1-0.3-0.2-0.4-0.3c-0.1-0.1-0.2-0.3-0.3-0.5c-0.1-0.2-0.1-0.4-0.1-0.6c0-0.2,0-0.5,0.1-0.6c0.1-0.2,0.2-0.3,0.3-0.5
			c0.1-0.1,0.3-0.2,0.4-0.3c0.2-0.1,0.3-0.1,0.5-0.1c0.1,0,0.2,0,0.3,0c0.1,0,0.2,0,0.3,0.1c0.1,0,0.1,0,0.2,0.1s0.1,0,0.1,0.1
			l-0.1,0.3c-0.1-0.1-0.2-0.1-0.3-0.1c-0.1,0-0.3-0.1-0.4-0.1c-0.1,0-0.3,0-0.4,0.1c-0.1,0.1-0.2,0.1-0.3,0.2
			c-0.1,0.1-0.2,0.2-0.2,0.4c0,0.1-0.1,0.3-0.1,0.5c0,0.2,0,0.3,0.1,0.5c0,0.1,0.1,0.3,0.2,0.4s0.2,0.2,0.3,0.2
			c0.1,0.1,0.3,0.1,0.4,0.1c0.1,0,0.2,0,0.3,0c0.1,0,0.1,0,0.2,0V209.4z"/>
		<path d="M251,207.9h0.4v2.9H251V207.9z"/>
		<path d="M256.4,210.8c-0.1-0.1-0.1-0.2-0.2-0.3c-0.1-0.1-0.2-0.3-0.3-0.4c-0.1-0.1-0.2-0.3-0.3-0.4c-0.1-0.1-0.2-0.3-0.3-0.4
			c-0.1-0.1-0.2-0.3-0.3-0.4c-0.1-0.1-0.2-0.2-0.3-0.3v2.3h-0.4v-2.9h0.3c0.1,0.1,0.3,0.3,0.4,0.5c0.1,0.2,0.3,0.4,0.4,0.6
			c0.1,0.2,0.3,0.4,0.4,0.6c0.1,0.2,0.2,0.4,0.3,0.5v-2.1h0.4v2.9H256.4z"/>
		<path d="M261.7,210.8c0-0.1-0.1-0.2-0.1-0.4c0-0.1-0.1-0.2-0.1-0.4h-1.3l-0.3,0.7h-0.4c0.1-0.3,0.2-0.6,0.3-0.9
			c0.1-0.3,0.2-0.5,0.3-0.7c0.1-0.2,0.2-0.5,0.3-0.7c0.1-0.2,0.2-0.4,0.3-0.6h0.4c0.1,0.2,0.2,0.4,0.3,0.6c0.1,0.2,0.2,0.4,0.3,0.7
			s0.2,0.5,0.3,0.7s0.2,0.5,0.3,0.9H261.7z M261.3,209.8c-0.1-0.2-0.2-0.5-0.3-0.7s-0.2-0.4-0.3-0.7c-0.1,0.2-0.2,0.4-0.3,0.7
			c-0.1,0.2-0.2,0.5-0.3,0.7H261.3z"/>
		<path d="M266.4,207.9v0.4h-0.9v2.5h-0.4v-2.5h-0.9v-0.4H266.4z"/>
		<path d="M269.1,207.9h0.4v2.9h-0.4V207.9z"/>
		<path d="M272.4,209.4c0-0.2,0-0.5,0.1-0.7c0.1-0.2,0.2-0.3,0.3-0.5c0.1-0.1,0.3-0.2,0.4-0.3c0.2-0.1,0.3-0.1,0.5-0.1
			c0.2,0,0.4,0,0.5,0.1c0.2,0.1,0.3,0.2,0.4,0.3c0.1,0.1,0.2,0.3,0.3,0.5c0.1,0.2,0.1,0.4,0.1,0.7c0,0.2,0,0.5-0.1,0.7
			c-0.1,0.2-0.2,0.3-0.3,0.5c-0.1,0.1-0.3,0.2-0.4,0.3c-0.2,0.1-0.3,0.1-0.5,0.1c-0.2,0-0.4,0-0.5-0.1c-0.2-0.1-0.3-0.2-0.4-0.3
			c-0.1-0.1-0.2-0.3-0.3-0.5C272.4,209.9,272.4,209.6,272.4,209.4z M272.8,209.4c0,0.2,0,0.3,0.1,0.5c0,0.1,0.1,0.3,0.2,0.4
			c0.1,0.1,0.2,0.2,0.3,0.2c0.1,0.1,0.3,0.1,0.4,0.1c0.1,0,0.3,0,0.4-0.1c0.1-0.1,0.2-0.1,0.3-0.2c0.1-0.1,0.1-0.2,0.2-0.4
			c0-0.1,0.1-0.3,0.1-0.5c0-0.2,0-0.3-0.1-0.5c0-0.1-0.1-0.3-0.2-0.4c-0.1-0.1-0.2-0.2-0.3-0.2c-0.1-0.1-0.2-0.1-0.4-0.1
			c-0.1,0-0.3,0-0.4,0.1c-0.1,0.1-0.2,0.1-0.3,0.2c-0.1,0.1-0.1,0.2-0.2,0.4C272.9,209.1,272.8,209.2,272.8,209.4z"/>
		<path d="M280,210.8c-0.1-0.1-0.1-0.2-0.2-0.3c-0.1-0.1-0.2-0.3-0.3-0.4c-0.1-0.1-0.2-0.3-0.3-0.4c-0.1-0.1-0.2-0.3-0.3-0.4
			c-0.1-0.1-0.2-0.3-0.3-0.4c-0.1-0.1-0.2-0.2-0.3-0.3v2.3H278v-2.9h0.3c0.1,0.1,0.3,0.3,0.4,0.5c0.1,0.2,0.3,0.4,0.4,0.6
			s0.3,0.4,0.4,0.6c0.1,0.2,0.2,0.4,0.3,0.5v-2.1h0.4v2.9H280z"/>
	</g>
</g>
</svg>
